999
dxfrw 0.6.3
  0
SECTION
  2
HEADER
  9
$ACADVER
  1
AC1021
  9
$DWGCODEPAGE
  3
ANSI_1252
  9
$INSBASE
 10
0
 20
0
 30
0
  9
$EXTMIN
 10
35
 20
18.75
 30
0
  9
$EXTMAX
 10
251.25
 20
163.125
 30
0
  9
$LIMMIN
 10
0
 20
0
  9
$LIMMAX
 10
420
 20
297
  9
$ORTHOMODE
 70
    0
  9
$REGENMODE
 70
    1
  9
$FILLMODE
 70
    1
  9
$QTEXTMODE
 70
    0
  9
$MIRRTEXT
 70
    0
  9
$LTSCALE
 40
1
  9
$ATTMODE
 70
    0
  9
$TEXTSIZE
 40
2.5
  9
$TRACEWID
 40
15.68
  9
$TEXTSTYLE
  7
STANDARD
  9
$CLAYER
  8
dim
  9
$CELTYPE
  6
BYLAYER
  9
$CECOLOR
 62
  256
  9
$CELTSCALE
 40
1
  9
$DISPSILH
 70
    0
  9
$DIMSCALE
 40
1
  9
$DIMASZ
 40
2.5
  9
$DIMEXO
 40
0.625
  9
$DIMDLI
 40
3.75
  9
$DIMRND
 40
0
  9
$DIMDLE
 40
0
  9
$DIMEXE
 40
1.25
  9
$DIMTP
 40
0
  9
$DIMTM
 40
0
  9
$DIMTXT
 40
2.5
  9
$DIMCEN
 40
2.5
  9
$DIMTSZ
 40
0
  9
$DIMTOL
 70
    0
  9
$DIMLIM
 70
    0
  9
$DIMTIH
 70
    0
  9
$DIMTOH
 70
    0
  9
$DIMSE1
 70
    0
  9
$DIMSE2
 70
    0
  9
$DIMTAD
 70
    1
  9
$DIMZIN
 70
    1
  9
$DIMBLK
  1

  9
$DIMASO
 70
    1
  9
$DIMSHO
 70
    1
  9
$DIMPOST
  1

  9
$DIMAPOST
  1

  9
$DIMALT
 70
    0
  9
$DIMALTD
 70
    3
  9
$DIMALTF
 40
0.03937
  9
$DIMLFAC
 40
1
  9
$DIMTOFL
 70
    1
  9
$DIMTVP
 40
0
  9
$DIMTIX
 70
    0
  9
$DIMSOXD
 70
    0
  9
$DIMSAH
 70
    0
  9
$DIMBLK1
  1

  9
$DIMBLK2
  1

  9
$DIMSTYLE
  2
STANDARD
  9
$DIMCLRD
 70
    0
  9
$DIMCLRE
 70
    0
  9
$DIMCLRT
 70
    0
  9
$DIMTFAC
 40
1
  9
$DIMGAP
 40
0.625
  9
$DIMJUST
 70
    0
  9
$DIMSD1
 70
    0
  9
$DIMSD2
 70
    0
  9
$DIMTOLJ
 70
    0
  9
$DIMTZIN
 70
    8
  9
$DIMALTZ
 70
    0
  9
$DIMALTTZ
 70
    0
  9
$DIMUPT
 70
    0
  9
$DIMDEC
 70
    1
  9
$DIMTDEC
 70
    2
  9
$DIMALTU
 70
    2
  9
$DIMALTTD
 70
    3
  9
$DIMTXSTY
  7
STANDARD
  9
$DIMAUNIT
 70
    0
  9
$DIMADEC
 70
    1
  9
$DIMALTRND
 40
0
  9
$DIMAZIN
 70
    0
  9
$DIMDSEP
 70
    0
  9
$DIMATFIT
 70
    3
  9
$DIMFRAC
 70
    0
  9
$DIMLDRBLK
  1
STANDARD
  9
$DIMLUNIT
 70
    2
  9
$DIMLWD
 70
   -2
  9
$DIMLWE
 70
   -2
  9
$DIMTMOVE
 70
    0
  9
$DIMFXL
 40
1
  9
$DIMFXLON
 70
    0
  9
$DIMJOGANG
 40
0.7854
  9
$DIMTFILL
 70
    0
  9
$DIMTFILLCLR
 70
    0
  9
$DIMARCSYM
 70
    0
  9
$DIMLTYPE
  6

  9
$DIMLTEX1
  6

  9
$DIMLTEX2
  6

  9
$LUNITS
 70
    2
  9
$LUPREC
 70
    4
  9
$SKETCHINC
 40
1
  9
$FILLETRAD
 40
0
  9
$AUNITS
 70
    0
  9
$AUPREC
 70
    2
  9
$MENU
  1
.
  9
$ELEVATION
 40
0
  9
$PELEVATION
 40
0
  9
$THICKNESS
 40
0
  9
$LIMCHECK
 70
    0
  9
$CHAMFERA
 40
0
  9
$CHAMFERB
 40
0
  9
$CHAMFERC
 40
0
  9
$CHAMFERD
 40
0
  9
$SKPOLY
 70
    0
  9
$USRTIMER
 70
    1
  9
$ANGBASE
 50
0
  9
$ANGDIR
 70
    0
  9
$PDMODE
 70
   34
  9
$PDSIZE
 40
0
  9
$PLINEWID
 40
0
  9
$SPLFRAME
 70
    0
  9
$SPLINETYPE
 70
    2
  9
$SPLINESEGS
 70
    8
  9
$HANDSEED
  5
20000
  9
$SURFTAB1
 70
    6
  9
$SURFTAB2
 70
    6
  9
$SURFTYPE
 70
    6
  9
$SURFU
 70
    6
  9
$SURFV
 70
    6
  9
$UCSBASE
  2

  9
$UCSNAME
  2

  9
$UCSORG
 10
0
 20
0
 30
0
  9
$UCSXDIR
 10
1
 20
0
 30
0
  9
$UCSYDIR
 10
0
 20
1
 30
0
  9
$UCSORTHOREF
  2

  9
$UCSORTHOVIEW
 70
    0
  9
$UCSORGTOP
 10
0
 20
0
 30
0
  9
$UCSORGBOTTOM
 10
0
 20
0
 30
0
  9
$UCSORGLEFT
 10
0
 20
0
 30
0
  9
$UCSORGRIGHT
 10
0
 20
0
 30
0
  9
$UCSORGFRONT
 10
0
 20
0
 30
0
  9
$UCSORGBACK
 10
0
 20
0
 30
0
  9
$PUCSBASE
  2

  9
$PUCSNAME
  2

  9
$PUCSORG
 10
0
 20
0
 30
0
  9
$PUCSXDIR
 10
1
 20
0
 30
0
  9
$PUCSYDIR
 10
0
 20
1
 30
0
  9
$PUCSORTHOREF
  2

  9
$PUCSORTHOVIEW
 70
    0
  9
$PUCSORGTOP
 10
0
 20
0
 30
0
  9
$PUCSORGBOTTOM
 10
0
 20
0
 30
0
  9
$PUCSORGLEFT
 10
0
 20
0
 30
0
  9
$PUCSORGRIGHT
 10
0
 20
0
 30
0
  9
$PUCSORGFRONT
 10
0
 20
0
 30
0
  9
$PUCSORGBACK
 10
0
 20
0
 30
0
  9
$USERI1
 70
    0
  9
$USERI2
 70
    0
  9
$USERI3
 70
    0
  9
$USERI4
 70
    0
  9
$USERI5
 70
    0
  9
$USERR1
 40
0
  9
$USERR2
 40
0
  9
$USERR3
 40
0
  9
$USERR4
 40
0
  9
$USERR5
 40
0
  9
$WORLDVIEW
 70
    1
  9
$SHADEDGE
 70
    3
  9
$SHADEDIF
 70
   70
  9
$TILEMODE
 70
    1
  9
$MAXACTVP
 70
   64
  9
$PINSBASE
 10
5.375
 20
14.0625
 30
0
  9
$PLIMCHECK
 70
    0
  9
$PEXTMIN
 10
0
 20
0
 30
0
  9
$PEXTMAX
 10
0
 20
0
 30
0
  9
$GRIDMODE
 70
    1
  9
$SNAPSTYLE
 70
    0
  9
$GRIDUNIT
 10
0
 20
0
  9
$PLIMMIN
 10
0
 20
0
  9
$PLIMMAX
 10
297
 20
210
  9
$UNITMODE
 70
    0
  9
$VISRETAIN
 70
    1
  9
$PLINEGEN
 70
    0
  9
$PSLTSCALE
 70
    1
  9
$TREEDEPTH
 70
 3020
  9
$CMLSTYLE
  2
Standard
  9
$CMLJUST
 70
    0
  9
$CMLSCALE
 40
20
  9
$PROXYGRAPHICS
 70
    1
  9
$MEASUREMENT
 70
    1
  9
$CELWEIGHT
370
   -1
  9
$ENDCAPS
280
    0
  9
$JOINSTYLE
280
    0
  9
$LWDISPLAY
290
    0
  9
$INSUNITS
 70
    0
  9
$HYPERLINKBASE
  1

  9
$STYLESHEET
  1

  9
$XEDIT
290
    1
  9
$CEPSNTYPE
380
    0
  9
$PSTYLEMODE
290
    1
  9
$EXTNAMES
290
    1
  9
$PSVPSCALE
 40
1
  9
$OLESTARTUP
290
    0
  9
$SORTENTS
280
  127
  9
$INDEXCTL
280
    0
  9
$HIDETEXT
280
    1
  9
$XCLIPFRAME
290
    0
  9
$HALOGAP
280
    0
  9
$OBSCOLOR
 70
  257
  9
$OBSLTYPE
280
    0
  9
$INTERSECTIONDISPLAY
280
    0
  9
$INTERSECTIONCOLOR
 70
  257
  9
$DIMASSOC
280
    1
  9
$PROJECTNAME
  1

  9
$CAMERADISPLAY
290
    0
  9
$LENSLENGTH
 40
50
  9
$CAMERAHEIGHT
 40
0
  9
$STEPSPERSEC
 40
2
  9
$STEPSIZE
 40
50
  9
$3DDWFPREC
 40
2
  9
$PSOLWIDTH
 40
5
  9
$PSOLHEIGHT
 40
80
  9
$LOFTANG1
 40
1.570796326794897
  9
$LOFTANG2
 40
1.570796326794897
  9
$LOFTMAG1
 40
0
  9
$LOFTMAG2
 40
0
  9
$LOFTPARAM
 70
    7
  9
$LOFTNORMALS
280
    1
  9
$LATITUDE
 40
1
  9
$LONGITUDE
 40
1
  9
$NORTHDIRECTION
 40
0
  9
$TIMEZONE
 70
-8000
  9
$LIGHTGLYPHDISPLAY
280
    1
  9
$TILEMODELIGHTSYNCH
280
    1
  9
$SOLIDHIST
280
    1
  9
$SHOWHIST
280
    1
  9
$DWFFRAME
280
    2
  9
$DGNFRAME
280
    0
  9
$REALWORLDSCALE
290
    1
  9
$INTERFERECOLOR
 62
    1
  9
$CSHADOW
280
    0
  9
$SHADOWPLANELOCATION
 40
0
  0
ENDSEC
  0
SECTION
  2
CLASSES
  0
ENDSEC
  0
SECTION
  2
TABLES
  0
TABLE
  2
VPORT
  5
8
330
0
100
AcDbSymbolTable
 70
    1
  0
VPORT
  5
31
330
2
100
AcDbSymbolTableRecord
100
AcDbViewportTableRecord
  2
*ACTIVE
 70
    0
 10
0
 20
0
 11
1
 21
1
 12
179.7500000000113
 22
97.62500000000612
 13
0
 23
0
 14
10
 24
10
 15
10
 25
10
 16
0
 26
0
 36
1
 17
0
 27
0
 37
0
 40
212.0000000000133
 41
1.889150943396226
 42
50
 43
0
 44
0
 50
0
 51
0
 71
    0
 72
  100
 73
    1
 74
    3
 75
    0
 76
    1
 77
    0
 78
    0
281
    0
 65
    1
110
0
120
0
130
0
111
1
121
0
131
0
112
0
122
1
132
0
 79
    0
146
0
348
10020
 60
    7
 61
    5
292
1
282
    1
141
0
142
0
 63
  250
421
3358443
  0
ENDTAB
  0
TABLE
  2
LTYPE
  5
5
330
0
100
AcDbSymbolTable
 70
    4
  0
LTYPE
  5
14
330
5
100
AcDbSymbolTableRecord
100
AcDbLinetypeTableRecord
  2
ByBlock
 70
    0
  3

 72
   65
 73
    0
 40
0
  0
LTYPE
  5
15
330
5
100
AcDbSymbolTableRecord
100
AcDbLinetypeTableRecord
  2
ByLayer
 70
    0
  3

 72
   65
 73
    0
 40
0
  0
LTYPE
  5
16
330
5
100
AcDbSymbolTableRecord
100
AcDbLinetypeTableRecord
  2
Continuous
 70
    0
  3
Solid line
 72
   65
 73
    0
 40
0
  0
LTYPE
  5
32
330
5
100
AcDbSymbolTableRecord
100
AcDbLinetypeTableRecord
  2
DOT
 70
    0
  3
Dot . . . . . . . . . . . . . . . . . . . . . .
 72
   65
 73
    2
 40
6.35
 49
0
 74
    0
 49
-6.35
 74
    0
  0
LTYPE
  5
33
330
5
100
AcDbSymbolTableRecord
100
AcDbLinetypeTableRecord
  2
DOTTINY
 70
    0
  3
Dot (.15x) .....................................
 72
   65
 73
    2
 40
0.9525
 49
0
 74
    0
 49
-0.9525
 74
    0
  0
LTYPE
  5
34
330
5
100
AcDbSymbolTableRecord
100
AcDbLinetypeTableRecord
  2
DOT2
 70
    0
  3
Dot (.5x) .....................................
 72
   65
 73
    2
 40
3.175
 49
0
 74
    0
 49
-3.175
 74
    0
  0
LTYPE
  5
35
330
5
100
AcDbSymbolTableRecord
100
AcDbLinetypeTableRecord
  2
DOTX2
 70
    0
  3
Dot (2x) .  .  .  .  .  .  .  .  .  .  .  .  .
 72
   65
 73
    2
 40
12.7
 49
0
 74
    0
 49
-12.7
 74
    0
  0
LTYPE
  5
36
330
5
100
AcDbSymbolTableRecord
100
AcDbLinetypeTableRecord
  2
DASHED
 70
    0
  3
Dashed _ _ _ _ _ _ _ _ _ _ _ _ _ _ _ _ _
 72
   65
 73
    2
 40
19.05
 49
12.7
 74
    0
 49
-6.35
 74
    0
  0
LTYPE
  5
37
330
5
100
AcDbSymbolTableRecord
100
AcDbLinetypeTableRecord
  2
DASHEDTINY
 70
    0
  3
Dashed (.15x) _ _ _ _ _ _ _ _ _ _ _ _ _ _ _ _ _
 72
   65
 73
    2
 40
2.8575
 49
1.905
 74
    0
 49
-0.9525
 74
    0
  0
LTYPE
  5
38
330
5
100
AcDbSymbolTableRecord
100
AcDbLinetypeTableRecord
  2
DASHED2
 70
    0
  3
Dashed (.5x) _ _ _ _ _ _ _ _ _ _ _ _ _ _ _ _ _
 72
   65
 73
    2
 40
9.524999999999999
 49
6.35
 74
    0
 49
-3.175
 74
    0
  0
LTYPE
  5
39
330
5
100
AcDbSymbolTableRecord
100
AcDbLinetypeTableRecord
  2
DASHEDX2
 70
    0
  3
Dashed (2x) ____  ____  ____  ____  ____  ___
 72
   65
 73
    2
 40
38.09999999999999
 49
25.4
 74
    0
 49
-12.7
 74
    0
  0
LTYPE
  5
3A
330
5
100
AcDbSymbolTableRecord
100
AcDbLinetypeTableRecord
  2
DASHDOT
 70
    0
  3
Dash dot __ . __ . __ . __ . __ . __ . __ . __
 72
   65
 73
    4
 40
25.4
 49
12.7
 74
    0
 49
-6.35
 74
    0
 49
0
 74
    0
 49
-6.35
 74
    0
  0
LTYPE
  5
3B
330
5
100
AcDbSymbolTableRecord
100
AcDbLinetypeTableRecord
  2
DASHDOTTINY
 70
    0
  3
Dash dot (.15x) _._._._._._._._._._._._._._._.
 72
   65
 73
    4
 40
3.81
 49
1.905
 74
    0
 49
-0.9525
 74
    0
 49
0
 74
    0
 49
-0.9525
 74
    0
  0
LTYPE
  5
3C
330
5
100
AcDbSymbolTableRecord
100
AcDbLinetypeTableRecord
  2
DASHDOT2
 70
    0
  3
Dash dot (.5x) _._._._._._._._._._._._._._._.
 72
   65
 73
    4
 40
12.7
 49
6.35
 74
    0
 49
-3.175
 74
    0
 49
0
 74
    0
 49
-3.175
 74
    0
  0
LTYPE
  5
3D
330
5
100
AcDbSymbolTableRecord
100
AcDbLinetypeTableRecord
  2
DASHDOTX2
 70
    0
  3
Dash dot (2x) ____  .  ____  .  ____  .  ___
 72
   65
 73
    4
 40
50.8
 49
25.4
 74
    0
 49
-12.7
 74
    0
 49
0
 74
    0
 49
-12.7
 74
    0
  0
LTYPE
  5
3E
330
5
100
AcDbSymbolTableRecord
100
AcDbLinetypeTableRecord
  2
DIVIDE
 70
    0
  3
Divide ____ . . ____ . . ____ . . ____ . . ____
 72
   65
 73
    6
 40
31.75
 49
12.7
 74
    0
 49
-6.35
 74
    0
 49
0
 74
    0
 49
-6.35
 74
    0
 49
0
 74
    0
 49
-6.35
 74
    0
  0
LTYPE
  5
3F
330
5
100
AcDbSymbolTableRecord
100
AcDbLinetypeTableRecord
  2
DIVIDETINY
 70
    0
  3
Divide (.15x) __..__..__..__..__..__..__..__.._
 72
   65
 73
    6
 40
4.7625
 49
1.905
 74
    0
 49
-0.9525
 74
    0
 49
0
 74
    0
 49
-0.9525
 74
    0
 49
0
 74
    0
 49
-0.9525
 74
    0
  0
LTYPE
  5
40
330
5
100
AcDbSymbolTableRecord
100
AcDbLinetypeTableRecord
  2
DIVIDE2
 70
    0
  3
Divide (.5x) __..__..__..__..__..__..__..__.._
 72
   65
 73
    6
 40
15.875
 49
6.35
 74
    0
 49
-3.175
 74
    0
 49
0
 74
    0
 49
-3.175
 74
    0
 49
0
 74
    0
 49
-3.175
 74
    0
  0
LTYPE
  5
41
330
5
100
AcDbSymbolTableRecord
100
AcDbLinetypeTableRecord
  2
DIVIDEX2
 70
    0
  3
Divide (2x) ________  .  .  ________  .  .  _
 72
   65
 73
    6
 40
63.5
 49
25.4
 74
    0
 49
-12.7
 74
    0
 49
0
 74
    0
 49
-12.7
 74
    0
 49
0
 74
    0
 49
-12.7
 74
    0
  0
LTYPE
  5
42
330
5
100
AcDbSymbolTableRecord
100
AcDbLinetypeTableRecord
  2
BORDER
 70
    0
  3
Border __ __ . __ __ . __ __ . __ __ . __ __ .
 72
   65
 73
    6
 40
44.45
 49
12.7
 74
    0
 49
-6.35
 74
    0
 49
12.7
 74
    0
 49
-6.35
 74
    0
 49
0
 74
    0
 49
-6.35
 74
    0
  0
LTYPE
  5
43
330
5
100
AcDbSymbolTableRecord
100
AcDbLinetypeTableRecord
  2
BORDERTINY
 70
    0
  3
Border (.15x) __.__.__.__.__.__.__.__.__.__.__.
 72
   65
 73
    6
 40
6.6675
 49
1.905
 74
    0
 49
-0.9525
 74
    0
 49
1.905
 74
    0
 49
-0.9525
 74
    0
 49
0
 74
    0
 49
-0.9525
 74
    0
  0
LTYPE
  5
44
330
5
100
AcDbSymbolTableRecord
100
AcDbLinetypeTableRecord
  2
BORDER2
 70
    0
  3
Border (.5x) __.__.__.__.__.__.__.__.__.__.__.
 72
   65
 73
    6
 40
22.225
 49
6.35
 74
    0
 49
-3.175
 74
    0
 49
6.35
 74
    0
 49
-3.175
 74
    0
 49
0
 74
    0
 49
-3.175
 74
    0
  0
LTYPE
  5
45
330
5
100
AcDbSymbolTableRecord
100
AcDbLinetypeTableRecord
  2
BORDERX2
 70
    0
  3
Border (2x) ____  ____  .  ____  ____  .  ___
 72
   65
 73
    6
 40
88.89999999999999
 49
25.4
 74
    0
 49
-12.7
 74
    0
 49
25.4
 74
    0
 49
-12.7
 74
    0
 49
0
 74
    0
 49
-12.7
 74
    0
  0
LTYPE
  5
46
330
5
100
AcDbSymbolTableRecord
100
AcDbLinetypeTableRecord
  2
CENTER
 70
    0
  3
Center ____ _ ____ _ ____ _ ____ _ ____ _ ____
 72
   65
 73
    4
 40
50.8
 49
31.75
 74
    0
 49
-6.35
 74
    0
 49
6.35
 74
    0
 49
-6.35
 74
    0
  0
LTYPE
  5
47
330
5
100
AcDbSymbolTableRecord
100
AcDbLinetypeTableRecord
  2
CENTERTINY
 70
    0
  3
Center (.15x) ___ _ ___ _ ___ _ ___ _ ___ _ ___
 72
   65
 73
    4
 40
7.62
 49
4.7625
 74
    0
 49
-0.9525
 74
    0
 49
0.9525
 74
    0
 49
-0.9525
 74
    0
  0
LTYPE
  5
48
330
5
100
AcDbSymbolTableRecord
100
AcDbLinetypeTableRecord
  2
CENTER2
 70
    0
  3
Center (.5x) ___ _ ___ _ ___ _ ___ _ ___ _ ___
 72
   65
 73
    4
 40
28.575
 49
19.05
 74
    0
 49
-3.175
 74
    0
 49
3.175
 74
    0
 49
-3.175
 74
    0
  0
LTYPE
  5
49
330
5
100
AcDbSymbolTableRecord
100
AcDbLinetypeTableRecord
  2
CENTERX2
 70
    0
  3
Center (2x) ________  __  ________  __  _____
 72
   65
 73
    4
 40
101.6
 49
63.5
 74
    0
 49
-12.7
 74
    0
 49
12.7
 74
    0
 49
-12.7
 74
    0
  0
ENDTAB
  0
TABLE
  2
LAYER
  5
2
330
0
100
AcDbSymbolTable
 70
    1
  0
LAYER
  5
10
330
2
100
AcDbSymbolTableRecord
100
AcDbLayerTableRecord
  2
0
 70
    0
 62
    7
  6
CONTINUOUS
370
    0
390
F
  0
LAYER
  5
4A
330
2
100
AcDbSymbolTableRecord
100
AcDbLayerTableRecord
  2
box
 70
    0
 62
    7
  6
CONTINUOUS
370
    0
390
F
  0
LAYER
  5
4B
330
2
100
AcDbSymbolTableRecord
100
AcDbLayerTableRecord
  2
dim
 70
    0
 62
    3
  6
CONTINUOUS
370
    0
390
F
  0
LAYER
  5
4C
330
2
100
AcDbSymbolTableRecord
100
AcDbLayerTableRecord
  2
servoarm
 70
    0
 62
    4
  6
CONTINUOUS
370
    0
390
F
  0
LAYER
  5
4D
330
2
100
AcDbSymbolTableRecord
100
AcDbLayerTableRecord
  2
servoarmmove
 70
    0
 62
    4
  6
CONTINUOUS
370
    0
390
F
  0
LAYER
  5
4E
330
2
100
AcDbSymbolTableRecord
100
AcDbLayerTableRecord
  2
servohood
 70
    0
 62
    6
  6
CONTINUOUS
370
    0
390
F
  0
LAYER
  5
4F
330
2
100
AcDbSymbolTableRecord
100
AcDbLayerTableRecord
  2
servohoodmove
 70
    0
 62
    6
  6
CONTINUOUS
370
    0
390
F
  0
LAYER
  5
50
330
2
100
AcDbSymbolTableRecord
100
AcDbLayerTableRecord
  2
switch
 70
    0
 62
    6
  6
CONTINUOUS
370
    0
390
F
  0
ENDTAB
  0
TABLE
  2
STYLE
  5
3
330
0
100
AcDbSymbolTable
 70
    3
  0
STYLE
  5
51
330
2
100
AcDbSymbolTableRecord
100
AcDbTextStyleTableRecord
  2
Standard
 70
    0
 40
0
 41
1
 50
0
 71
    0
 42
1
  3
txt
  4

  0
ENDTAB
  0
TABLE
  2
VIEW
  5
6
330
0
100
AcDbSymbolTable
 70
    0
  0
ENDTAB
  0
TABLE
  2
UCS
  5
7
330
0
100
AcDbSymbolTable
 70
    0
  0
ENDTAB
  0
TABLE
  2
APPID
  5
9
330
0
100
AcDbSymbolTable
 70
    1
  0
APPID
  5
12
330
9
100
AcDbSymbolTableRecord
100
AcDbRegAppTableRecord
  2
ACAD
 70
    0
  0
APPID
  5
52
330
9
100
AcDbSymbolTableRecord
100
AcDbRegAppTableRecord
  2
LibreCad
 70
    0
  0
ENDTAB
  0
TABLE
  2
DIMSTYLE
  5
A
330
0
100
AcDbSymbolTable
 70
    1
100
AcDbDimStyleTable
 71
    1
  0
DIMSTYLE
105
53
330
A
100
AcDbSymbolTableRecord
100
AcDbDimStyleTableRecord
  2
Standard
 70
    0
 40
1
 41
2.5
 42
0.625
 43
0.38
 44
1.25
 45
0
 46
0
 47
0
 48
0
 49
1
140
2.5
141
0.09
142
0
143
25.4
144
1
145
0
146
1
147
0.625
148
0
 71
    0
 72
    0
 73
    0
 74
    1
 75
    0
 76
    0
 77
    0
 78
    1
 79
    0
170
    0
171
    2
172
    0
173
    0
174
    0
175
    0
176
    0
177
    0
178
    0
179
    1
271
    1
272
    4
273
    2
274
    2
275
    0
276
    0
277
    2
278
    0
279
    0
280
    0
281
    0
282
    0
283
    1
284
    0
285
    0
286
    0
288
    0
289
    3
340
STANDARD
341

371
   -2
372
   -2
  0
ENDTAB
  0
TABLE
  2
BLOCK_RECORD
  5
1
330
0
100
AcDbSymbolTable
 70
    2
  0
BLOCK_RECORD
  5
1F
330
1
100
AcDbSymbolTableRecord
100
AcDbBlockTableRecord
  2
*Model_Space
 70
    0
280
    1
281
    0
  0
BLOCK_RECORD
  5
1E
330
1
100
AcDbSymbolTableRecord
100
AcDbBlockTableRecord
  2
*Paper_Space
 70
    0
280
    1
281
    0
  0
BLOCK_RECORD
  5
54
330
1
100
AcDbSymbolTableRecord
100
AcDbBlockTableRecord
  2
*D17
 70
    0
280
    1
281
    0
  0
BLOCK_RECORD
  5
57
330
1
100
AcDbSymbolTableRecord
100
AcDbBlockTableRecord
  2
*D6
 70
    0
280
    1
281
    0
  0
BLOCK_RECORD
  5
5A
330
1
100
AcDbSymbolTableRecord
100
AcDbBlockTableRecord
  2
*D14
 70
    0
280
    1
281
    0
  0
BLOCK_RECORD
  5
5D
330
1
100
AcDbSymbolTableRecord
100
AcDbBlockTableRecord
  2
*D7
 70
    0
280
    1
281
    0
  0
BLOCK_RECORD
  5
60
330
1
100
AcDbSymbolTableRecord
100
AcDbBlockTableRecord
  2
*D5
 70
    0
280
    1
281
    0
  0
BLOCK_RECORD
  5
63
330
1
100
AcDbSymbolTableRecord
100
AcDbBlockTableRecord
  2
*D13
 70
    0
280
    1
281
    0
  0
BLOCK_RECORD
  5
66
330
1
100
AcDbSymbolTableRecord
100
AcDbBlockTableRecord
  2
*D11
 70
    0
280
    1
281
    0
  0
BLOCK_RECORD
  5
69
330
1
100
AcDbSymbolTableRecord
100
AcDbBlockTableRecord
  2
*D4
 70
    0
280
    1
281
    0
  0
BLOCK_RECORD
  5
6C
330
1
100
AcDbSymbolTableRecord
100
AcDbBlockTableRecord
  2
*D3
 70
    0
280
    1
281
    0
  0
BLOCK_RECORD
  5
6F
330
1
100
AcDbSymbolTableRecord
100
AcDbBlockTableRecord
  2
*D8
 70
    0
280
    1
281
    0
  0
BLOCK_RECORD
  5
72
330
1
100
AcDbSymbolTableRecord
100
AcDbBlockTableRecord
  2
*D10
 70
    0
280
    1
281
    0
  0
BLOCK_RECORD
  5
75
330
1
100
AcDbSymbolTableRecord
100
AcDbBlockTableRecord
  2
*D2
 70
    0
280
    1
281
    0
  0
BLOCK_RECORD
  5
78
330
1
100
AcDbSymbolTableRecord
100
AcDbBlockTableRecord
  2
*D15
 70
    0
280
    1
281
    0
  0
BLOCK_RECORD
  5
7B
330
1
100
AcDbSymbolTableRecord
100
AcDbBlockTableRecord
  2
*D12
 70
    0
280
    1
281
    0
  0
BLOCK_RECORD
  5
7E
330
1
100
AcDbSymbolTableRecord
100
AcDbBlockTableRecord
  2
*D1
 70
    0
280
    1
281
    0
  0
BLOCK_RECORD
  5
81
330
1
100
AcDbSymbolTableRecord
100
AcDbBlockTableRecord
  2
*D16
 70
    0
280
    1
281
    0
  0
BLOCK_RECORD
  5
84
330
1
100
AcDbSymbolTableRecord
100
AcDbBlockTableRecord
  2
*D18
 70
    0
280
    1
281
    0
  0
BLOCK_RECORD
  5
87
330
1
100
AcDbSymbolTableRecord
100
AcDbBlockTableRecord
  2
*D9
 70
    0
280
    1
281
    0
  0
BLOCK_RECORD
  5
8A
330
1
100
AcDbSymbolTableRecord
100
AcDbBlockTableRecord
  2
tst1
 70
    0
280
    1
281
    0
  0
ENDTAB
  0
ENDSEC
  0
SECTION
  2
BLOCKS
  0
BLOCK
  5
20
330
1F
100
AcDbEntity
  8
0
100
AcDbBlockBegin
  2
*Model_Space
 70
    0
 10
0
 20
0
 30
0
  3
*Model_Space
  1

  0
ENDBLK
  5
21
330
1F
100
AcDbEntity
  8
0
100
AcDbBlockEnd
  0
BLOCK
  5
1C
330
1B
100
AcDbEntity
  8
0
100
AcDbBlockBegin
  2
*Paper_Space
 70
    0
 10
0
 20
0
 30
0
  3
*Paper_Space
  1

  0
ENDBLK
  5
1D
330
1F
100
AcDbEntity
  8
0
100
AcDbBlockEnd
  0
BLOCK
  5
55
330
54
100
AcDbEntity
  8
0
100
AcDbBlockBegin
  2
*D17
 70
    1
 10
0
 20
0
  3
*D17
  1

  0
LINE
  5
8D
100
AcDbEntity
  8
dim
  6
ByBlock
 62
    0
370
   -2
100
AcDbLine
 10
172.5
 20
134
 11
204.047619047619
 21
134
  0
SOLID
  5
8E
100
AcDbEntity
  8
dim
  6
ByBlock
 62
    0
370
   -2
100
AcDbTrace
 10
172.5
 20
134
 30
0
 11
175
 21
134.4162846577728
 31
0
 12
175
 22
133.5837153422272
 32
0
 13
175
 23
133.5837153422272
 33
0
  0
SOLID
  5
8F
100
AcDbEntity
  8
dim
  6
ByBlock
 62
    0
370
   -2
100
AcDbTrace
 10
204.047619047619
 20
134
 30
0
 11
201.547619047619
 21
133.5837153422272
 31
0
 12
201.547619047619
 22
134.4162846577728
 32
0
 13
201.547619047619
 23
134.4162846577728
 33
0
  0
MTEXT
  5
90
100
AcDbEntity
  8
dim
  6
CONTINUOUS
 62
    0
370
   -2
100
AcDbMText
 10
188.2738095238095
 20
135.875
 30
0
 40
2.5
 41
5.277777777778088
 71
    5
 72
    1
  1
31.5
  7
STANDARD
210
0
220
0
230
1
 50
0
 73
    2
 44
1
  0
LINE
  5
91
100
AcDbEntity
  8
dim
  6
ByBlock
 62
    0
370
   -2
100
AcDbLine
 10
172.5
 20
125.625
 11
172.5
 21
135.25
  0
LINE
  5
92
100
AcDbEntity
  8
dim
  6
ByBlock
 62
    0
370
   -2
100
AcDbLine
 10
204.047619047619
 20
125.625
 11
204.047619047619
 21
135.25
  0
ENDBLK
  5
56
330
54
100
AcDbEntity
  8
0
100
AcDbBlockEnd
  0
BLOCK
  5
58
330
57
100
AcDbEntity
  8
0
100
AcDbBlockBegin
  2
*D6
 70
    1
 10
0
 20
0
  3
*D6
  1

  0
LINE
  5
93
100
AcDbEntity
  8
dim
  6
ByBlock
 62
    0
370
   -2
100
AcDbLine
 10
82.26366558449382
 20
49.18749949273233
 11
72.41265584493831
 21
54.87499492732329
  0
LINE
  5
94
100
AcDbEntity
  8
dim
  6
ByBlock
 62
    0
370
   -2
100
AcDbLine
 10
73.02811110971643
 20
74.56205086077107
 11
69.13763139996271
 21
63.87307687655231
  0
ARC
  5
95
100
AcDbEntity
  8
dim
  6
ByBlock
 62
    0
370
   -2
100
AcDbCircle
 10
67
 20
58
 40
5
100
AcDbArc
 50
329.9999463030911
 51
69.99994630309109
  0
SOLID
  5
96
100
AcDbEntity
  8
dim
  6
ByBlock
 62
    0
370
   -2
100
AcDbTrace
 10
71.33012467595064
 20
55.49999594185863
 30
0
 11
71.60482143382885
 21
58.01948688399521
 31
0
 12
72.40642291543676
 22
57.79452748794296
 32
0
 13
72.40642291543676
 23
57.79452748794296
 33
0
  0
SOLID
  5
97
100
AcDbEntity
  8
dim
  6
ByBlock
 62
    0
370
   -2
100
AcDbTrace
 10
68.71010511997017
 20
62.69846150124185
 30
0
 11
71.00949185545782
 21
61.63257522355532
 31
0
 12
70.54002931854292
 22
60.94498770794613
 32
0
 13
70.54002931854292
 23
60.94498770794613
 33
0
  0
MTEXT
  5
98
100
AcDbEntity
  8
dim
  6
CONTINUOUS
 62
    0
370
   -2
100
AcDbMText
 10
72.28577279493975
 20
59.92385835244565
 30
0
 40
2.5
 41
8.888888888888889
 71
    8
 72
    1
  1
100.0%%D
  7
STANDARD
210
0
220
0
230
1
 50
289.9999463030911
 73
    2
 44
1
  0
ENDBLK
  5
59
330
57
100
AcDbEntity
  8
0
100
AcDbBlockEnd
  0
BLOCK
  5
5B
330
5A
100
AcDbEntity
  8
0
100
AcDbBlockBegin
  2
*D14
 70
    1
 10
0
 20
0
  3
*D14
  1

  0
LINE
  5
99
100
AcDbEntity
  8
dim
  6
ByBlock
 62
    0
370
   -2
100
AcDbLine
 10
35
 20
160
 11
205
 21
160
  0
SOLID
  5
9A
100
AcDbEntity
  8
dim
  6
ByBlock
 62
    0
370
   -2
100
AcDbTrace
 10
35
 20
160
 30
0
 11
37.5
 21
160.4162846577728
 31
0
 12
37.5
 22
159.5837153422272
 32
0
 13
37.5
 23
159.5837153422272
 33
0
  0
SOLID
  5
9B
100
AcDbEntity
  8
dim
  6
ByBlock
 62
    0
370
   -2
100
AcDbTrace
 10
205
 20
160
 30
0
 11
202.5
 21
159.5837153422272
 31
0
 12
202.5
 22
160.4162846577728
 32
0
 13
202.5
 23
160.4162846577728
 33
0
  0
MTEXT
  5
9C
100
AcDbEntity
  8
dim
  6
CONTINUOUS
 62
    0
370
   -2
100
AcDbMText
 10
120
 20
161.875
 30
0
 40
2.5
 41
7.222222222222222
 71
    5
 72
    1
  1
170.0
  7
STANDARD
210
0
220
0
230
1
 50
0
 73
    2
 44
1
  0
LINE
  5
9D
100
AcDbEntity
  8
dim
  6
ByBlock
 62
    0
370
   -2
100
AcDbLine
 10
35
 20
145.625
 11
35
 21
161.25
  0
LINE
  5
9E
100
AcDbEntity
  8
dim
  6
ByBlock
 62
    0
370
   -2
100
AcDbLine
 10
205
 20
145.625
 11
205
 21
161.25
  0
ENDBLK
  5
5C
330
5A
100
AcDbEntity
  8
0
100
AcDbBlockEnd
  0
BLOCK
  5
5E
330
5D
100
AcDbEntity
  8
0
100
AcDbBlockBegin
  2
*D7
 70
    1
 10
0
 20
0
  3
*D7
  1

  0
LINE
  5
9F
100
AcDbEntity
  8
dim
  6
ByBlock
 62
    0
370
   -2
100
AcDbLine
 10
221
 20
145
 11
221
 21
125
  0
SOLID
  5
A0
100
AcDbEntity
  8
dim
  6
ByBlock
 62
    0
370
   -2
100
AcDbTrace
 10
221
 20
145
 30
0
 11
221.4162846577728
 21
142.5
 31
0
 12
220.5837153422272
 22
142.5
 32
0
 13
220.5837153422272
 23
142.5
 33
0
  0
SOLID
  5
A1
100
AcDbEntity
  8
dim
  6
ByBlock
 62
    0
370
   -2
100
AcDbTrace
 10
221
 20
125
 30
0
 11
220.5837153422272
 21
127.5
 31
0
 12
221.4162846577728
 22
127.5
 32
0
 13
221.4162846577728
 23
127.5
 33
0
  0
MTEXT
  5
A2
100
AcDbEntity
  8
dim
  6
CONTINUOUS
 62
    0
370
   -2
100
AcDbMText
 10
219.125
 20
135
 30
0
 40
2.5
 41
5.833333333333334
 71
    5
 72
    1
  1
20.0
  7
STANDARD
210
0
220
0
230
1
 50
90
 73
    2
 44
1
  0
LINE
  5
A3
100
AcDbEntity
  8
dim
  6
ByBlock
 62
    0
370
   -2
100
AcDbLine
 10
205.625
 20
145
 11
222.25
 21
145
  0
LINE
  5
A4
100
AcDbEntity
  8
dim
  6
ByBlock
 62
    0
370
   -2
100
AcDbLine
 10
204.672619047619
 20
125
 11
222.25
 21
125
  0
ENDBLK
  5
5F
330
5D
100
AcDbEntity
  8
0
100
AcDbBlockEnd
  0
BLOCK
  5
61
330
60
100
AcDbEntity
  8
0
100
AcDbBlockBegin
  2
*D5
 70
    1
 10
0
 20
0
  3
*D5
  1

  0
LINE
  5
A5
100
AcDbEntity
  8
dim
  6
ByBlock
 62
    0
370
   -2
100
AcDbLine
 10
48.55839650109659
 20
52
 11
48.55839650109659
 21
64
  0
SOLID
  5
A6
100
AcDbEntity
  8
dim
  6
ByBlock
 62
    0
370
   -2
100
AcDbTrace
 10
48.55839650109659
 20
52
 30
0
 11
48.14211184332375
 21
54.5
 31
0
 12
48.97468115886943
 22
54.5
 32
0
 13
48.97468115886943
 23
54.5
 33
0
  0
SOLID
  5
A7
100
AcDbEntity
  8
dim
  6
ByBlock
 62
    0
370
   -2
100
AcDbTrace
 10
48.55839650109659
 20
64
 30
0
 11
48.97468115886943
 21
61.5
 31
0
 12
48.14211184332375
 22
61.5
 32
0
 13
48.14211184332375
 23
61.5
 33
0
  0
MTEXT
  5
A8
100
AcDbEntity
  8
dim
  6
CONTINUOUS
 62
    0
370
   -2
100
AcDbMText
 10
46.68339650109659
 20
58
 30
0
 40
2.5
 41
5.277777777777778
 71
    5
 72
    1
  1
12.0
  7
STANDARD
210
0
220
0
230
1
 50
90
 73
    2
 44
1
  0
LINE
  5
A9
100
AcDbEntity
  8
dim
  6
ByBlock
 62
    0
370
   -2
100
AcDbLine
 10
49.375
 20
52
 11
47.30839650109659
 21
52
  0
LINE
  5
AA
100
AcDbEntity
  8
dim
  6
ByBlock
 62
    0
370
   -2
100
AcDbLine
 10
49.375
 20
64
 11
47.30839650109659
 21
64
  0
ENDBLK
  5
62
330
60
100
AcDbEntity
  8
0
100
AcDbBlockEnd
  0
BLOCK
  5
64
330
63
100
AcDbEntity
  8
0
100
AcDbBlockBegin
  2
*D13
 70
    1
 10
0
 20
0
  3
*D13
  1

  0
LINE
  5
AB
100
AcDbEntity
  8
dim
  6
ByBlock
 62
    0
370
   -2
100
AcDbLine
 10
163
 20
115
 11
163
 21
95
  0
SOLID
  5
AC
100
AcDbEntity
  8
dim
  6
ByBlock
 62
    0
370
   -2
100
AcDbTrace
 10
163
 20
115
 30
0
 11
163.4162846577728
 21
112.5
 31
0
 12
162.5837153422272
 22
112.5
 32
0
 13
162.5837153422272
 23
112.5
 33
0
  0
SOLID
  5
AD
100
AcDbEntity
  8
dim
  6
ByBlock
 62
    0
370
   -2
100
AcDbTrace
 10
163
 20
95
 30
0
 11
162.5837153422272
 21
97.5
 31
0
 12
163.4162846577728
 22
97.5
 32
0
 13
163.4162846577728
 23
97.5
 33
0
  0
MTEXT
  5
AE
100
AcDbEntity
  8
dim
  6
CONTINUOUS
 62
    0
370
   -2
100
AcDbMText
 10
161.125
 20
105
 30
0
 40
2.5
 41
5.833333333333334
 71
    5
 72
    1
  1
20.0
  7
STANDARD
210
0
220
0
230
1
 50
90
 73
    2
 44
1
  0
LINE
  5
AF
100
AcDbEntity
  8
dim
  6
ByBlock
 62
    0
370
   -2
100
AcDbLine
 10
160.625
 20
115
 11
164.25
 21
115
  0
LINE
  5
B0
100
AcDbEntity
  8
dim
  6
ByBlock
 62
    0
370
   -2
100
AcDbLine
 10
160.625
 20
95
 11
164.25
 21
95
  0
ENDBLK
  5
65
330
63
100
AcDbEntity
  8
0
100
AcDbBlockEnd
  0
BLOCK
  5
67
330
66
100
AcDbEntity
  8
0
100
AcDbBlockBegin
  2
*D11
 70
    1
 10
0
 20
0
  3
*D11
  1

  0
LINE
  5
B1
100
AcDbEntity
  8
dim
  6
ByBlock
 62
    0
370
   -2
100
AcDbLine
 10
107.7731003571831
 20
108.9141844929063
 11
100.2342551481542
 21
104.6203314095374
  0
LINE
  5
B2
100
AcDbEntity
  8
dim
  6
ByBlock
 62
    0
370
   -2
100
AcDbLine
 10
120.1460231784587
 20
87.19067692946811
 11
112.6071779694299
 21
82.89682384609917
  0
LINE
  5
B3
100
AcDbEntity
  8
dim
  6
ByBlock
 62
    0
370
   -2
100
AcDbLine
 10
101.3204305263261
 20
105.2389775506011
 11
113.6933533476018
 21
83.51546998716294
  0
SOLID
  5
B4
100
AcDbEntity
  8
dim
  6
ByBlock
 62
    0
370
   -2
100
AcDbTrace
 10
101.3204305263261
 20
105.2389775506011
 30
0
 11
102.9194493249205
 21
103.2726531119495
 31
0
 12
102.1959962919868
 22
102.8606004765652
 32
0
 13
102.1959962919868
 23
102.8606004765652
 33
0
  0
SOLID
  5
B5
100
AcDbEntity
  8
dim
  6
ByBlock
 62
    0
370
   -2
100
AcDbTrace
 10
113.6933533476018
 20
83.51546998716294
 30
0
 11
112.0943345490074
 21
85.48179442581458
 31
0
 12
112.8177875819411
 22
85.89384706119894
 32
0
 13
112.8177875819411
 23
85.89384706119894
 33
0
  0
MTEXT
  5
B6
100
AcDbEntity
  8
dim
  6
CONTINUOUS
 62
    0
370
   -2
100
AcDbMText
 10
109.1361550042219
 20
95.30519298047776
 30
0
 40
2.5
 41
5.833333333333489
 71
    5
 72
    1
  1
25.0
  7
STANDARD
210
0
220
0
230
1
 50
299.6642716266094
 73
    2
 44
1
  0
ENDBLK
  5
68
330
66
100
AcDbEntity
  8
0
100
AcDbBlockEnd
  0
BLOCK
  5
6A
330
69
100
AcDbEntity
  8
0
100
AcDbBlockBegin
  2
*D4
 70
    1
 10
0
 20
0
  3
*D4
  1

  0
LINE
  5
B7
100
AcDbEntity
  8
dim
  6
ByBlock
 62
    0
370
   -2
100
AcDbLine
 10
50
 20
48
 11
73
 21
48
  0
SOLID
  5
B8
100
AcDbEntity
  8
dim
  6
ByBlock
 62
    0
370
   -2
100
AcDbTrace
 10
50
 20
48
 30
0
 11
52.5
 21
48.41628465777284
 31
0
 12
52.5
 22
47.58371534222716
 32
0
 13
52.5
 23
47.58371534222716
 33
0
  0
SOLID
  5
B9
100
AcDbEntity
  8
dim
  6
ByBlock
 62
    0
370
   -2
100
AcDbTrace
 10
73
 20
48
 30
0
 11
70.5
 21
47.58371534222716
 31
0
 12
70.5
 22
48.41628465777284
 32
0
 13
70.5
 23
48.41628465777284
 33
0
  0
MTEXT
  5
BA
100
AcDbEntity
  8
dim
  6
CONTINUOUS
 62
    0
370
   -2
100
AcDbMText
 10
61.5
 20
49.875
 30
0
 40
2.5
 41
5.833333333333489
 71
    5
 72
    1
  1
23.0
  7
STANDARD
210
0
220
0
230
1
 50
0
 73
    2
 44
1
  0
LINE
  5
BB
100
AcDbEntity
  8
dim
  6
ByBlock
 62
    0
370
   -2
100
AcDbLine
 10
50
 20
51.375
 11
50
 21
46.75
  0
LINE
  5
BC
100
AcDbEntity
  8
dim
  6
ByBlock
 62
    0
370
   -2
100
AcDbLine
 10
73
 20
51.375
 11
73
 21
46.75
  0
ENDBLK
  5
6B
330
69
100
AcDbEntity
  8
0
100
AcDbBlockEnd
  0
BLOCK
  5
6D
330
6C
100
AcDbEntity
  8
0
100
AcDbBlockBegin
  2
*D3
 70
    1
 10
0
 20
0
  3
*D3
  1

  0
LINE
  5
BD
100
AcDbEntity
  8
dim
  6
ByBlock
 62
    0
370
   -2
100
AcDbLine
 10
250
 20
40
 11
250
 21
145
  0
SOLID
  5
BE
100
AcDbEntity
  8
dim
  6
ByBlock
 62
    0
370
   -2
100
AcDbTrace
 10
250
 20
40
 30
0
 11
249.5837153422272
 21
42.5
 31
0
 12
250.4162846577728
 22
42.5
 32
0
 13
250.4162846577728
 23
42.5
 33
0
  0
SOLID
  5
BF
100
AcDbEntity
  8
dim
  6
ByBlock
 62
    0
370
   -2
100
AcDbTrace
 10
250
 20
145
 30
0
 11
250.4162846577728
 21
142.5
 31
0
 12
249.5837153422272
 22
142.5
 32
0
 13
249.5837153422272
 23
142.5
 33
0
  0
MTEXT
  5
C0
100
AcDbEntity
  8
dim
  6
CONTINUOUS
 62
    0
370
   -2
100
AcDbMText
 10
248.125
 20
92.5
 30
0
 40
2.5
 41
7.222222222222378
 71
    5
 72
    1
  1
105.0
  7
STANDARD
210
0
220
0
230
1
 50
90
 73
    2
 44
1
  0
LINE
  5
C1
100
AcDbEntity
  8
dim
  6
ByBlock
 62
    0
370
   -2
100
AcDbLine
 10
200.625
 20
40
 11
251.25
 21
40
  0
LINE
  5
C2
100
AcDbEntity
  8
dim
  6
ByBlock
 62
    0
370
   -2
100
AcDbLine
 10
205.625
 20
145
 11
251.25
 21
145
  0
ENDBLK
  5
6E
330
6C
100
AcDbEntity
  8
0
100
AcDbBlockEnd
  0
BLOCK
  5
70
330
6F
100
AcDbEntity
  8
0
100
AcDbBlockBegin
  2
*D8
 70
    1
 10
0
 20
0
  3
*D8
  1

  0
LINE
  5
C3
100
AcDbEntity
  8
dim
  6
ByBlock
 62
    0
370
   -2
100
AcDbLine
 10
120
 20
87
 11
160
 21
87
  0
SOLID
  5
C4
100
AcDbEntity
  8
dim
  6
ByBlock
 62
    0
370
   -2
100
AcDbTrace
 10
120
 20
87
 30
0
 11
122.5
 21
87.41628465777283
 31
0
 12
122.5
 22
86.58371534222717
 32
0
 13
122.5
 23
86.58371534222717
 33
0
  0
SOLID
  5
C5
100
AcDbEntity
  8
dim
  6
ByBlock
 62
    0
370
   -2
100
AcDbTrace
 10
160
 20
87
 30
0
 11
157.5
 21
86.58371534222717
 31
0
 12
157.5
 22
87.41628465777283
 32
0
 13
157.5
 23
87.41628465777283
 33
0
  0
MTEXT
  5
C6
100
AcDbEntity
  8
dim
  6
CONTINUOUS
 62
    0
370
   -2
100
AcDbMText
 10
140
 20
88.875
 30
0
 40
2.5
 41
6.111111111111112
 71
    5
 72
    1
  1
40.0
  7
STANDARD
210
0
220
0
230
1
 50
0
 73
    2
 44
1
  0
LINE
  5
C7
100
AcDbEntity
  8
dim
  6
ByBlock
 62
    0
370
   -2
100
AcDbLine
 10
120
 20
94.375
 11
120
 21
85.75
  0
LINE
  5
C8
100
AcDbEntity
  8
dim
  6
ByBlock
 62
    0
370
   -2
100
AcDbLine
 10
160
 20
94.375
 11
160
 21
85.75
  0
ENDBLK
  5
71
330
6F
100
AcDbEntity
  8
0
100
AcDbBlockEnd
  0
BLOCK
  5
73
330
72
100
AcDbEntity
  8
0
100
AcDbBlockBegin
  2
*D10
 70
    1
 10
0
 20
0
  3
*D10
  1

  0
LINE
  5
C9
100
AcDbEntity
  8
dim
  6
ByBlock
 62
    0
370
   -2
100
AcDbLine
 10
120.3766108675447
 20
88.04126587736528
 11
117.412187078898
 21
93.17579849446714
  0
LINE
  5
CA
100
AcDbEntity
  8
dim
  6
ByBlock
 62
    0
370
   -2
100
AcDbLine
 10
150.6875
 20
105.5412658773653
 11
147.7230762113533
 21
110.6757984944671
  0
LINE
  5
CB
100
AcDbEntity
  8
dim
  6
ByBlock
 62
    0
370
   -2
100
AcDbLine
 10
118.037187078898
 20
92.09326673973661
 11
148.3480762113533
 21
109.5932667397366
  0
SOLID
  5
CC
100
AcDbEntity
  8
dim
  6
ByBlock
 62
    0
370
   -2
100
AcDbTrace
 10
118.037187078898
 20
92.09326673973661
 30
0
 11
119.9941082594727
 21
93.7037798285736
 31
0
 12
120.4103929172455
 22
92.98275365089961
 32
0
 13
120.4103929172455
 23
92.98275365089961
 33
0
  0
SOLID
  5
CD
100
AcDbEntity
  8
dim
  6
ByBlock
 62
    0
370
   -2
100
AcDbTrace
 10
148.3480762113533
 20
109.5932667397366
 30
0
 11
146.3911550307786
 21
107.9827536508996
 31
0
 12
145.9748703730058
 22
108.7037798285736
 32
0
 13
145.9748703730058
 23
108.7037798285736
 33
0
  0
MTEXT
  5
CE
100
AcDbEntity
  8
dim
  6
CONTINUOUS
 62
    0
370
   -2
100
AcDbMText
 10
132.2551316451256
 20
102.4670643718324
 30
0
 40
2.5
 41
5.833333333333643
 71
    5
 72
    1
  1
35.0
  7
STANDARD
210
0
220
0
230
1
 50
30.00000000000004
 73
    2
 44
1
  0
ENDBLK
  5
74
330
72
100
AcDbEntity
  8
0
100
AcDbBlockEnd
  0
BLOCK
  5
76
330
75
100
AcDbEntity
  8
0
100
AcDbBlockBegin
  2
*D2
 70
    1
 10
0
 20
0
  3
*D2
  1

  0
LINE
  5
CF
100
AcDbEntity
  8
dim
  6
ByBlock
 62
    0
370
   -2
100
AcDbLine
 10
230
 20
40
 11
230
 21
125
  0
SOLID
  5
D0
100
AcDbEntity
  8
dim
  6
ByBlock
 62
    0
370
   -2
100
AcDbTrace
 10
230
 20
40
 30
0
 11
229.5837153422272
 21
42.5
 31
0
 12
230.4162846577728
 22
42.5
 32
0
 13
230.4162846577728
 23
42.5
 33
0
  0
SOLID
  5
D1
100
AcDbEntity
  8
dim
  6
ByBlock
 62
    0
370
   -2
100
AcDbTrace
 10
230
 20
125
 30
0
 11
230.4162846577728
 21
122.5
 31
0
 12
229.5837153422272
 22
122.5
 32
0
 13
229.5837153422272
 23
122.5
 33
0
  0
MTEXT
  5
D2
100
AcDbEntity
  8
dim
  6
CONTINUOUS
 62
    0
370
   -2
100
AcDbMText
 10
228.125
 20
82.5
 30
0
 40
2.5
 41
5.833333333333489
 71
    5
 72
    1
  1
85.0
  7
STANDARD
210
0
220
0
230
1
 50
90
 73
    2
 44
1
  0
LINE
  5
D3
100
AcDbEntity
  8
dim
  6
ByBlock
 62
    0
370
   -2
100
AcDbLine
 10
200.625
 20
40
 11
231.25
 21
40
  0
LINE
  5
D4
100
AcDbEntity
  8
dim
  6
ByBlock
 62
    0
370
   -2
100
AcDbLine
 10
204.6726190476191
 20
125
 11
231.25
 21
125
  0
ENDBLK
  5
77
330
75
100
AcDbEntity
  8
0
100
AcDbBlockEnd
  0
BLOCK
  5
79
330
78
100
AcDbEntity
  8
0
100
AcDbBlockBegin
  2
*D15
 70
    1
 10
0
 20
0
  3
*D15
  1

  0
LINE
  5
D5
100
AcDbEntity
  8
dim
  6
ByBlock
 62
    0
370
   -2
100
AcDbLine
 10
35.9524
 20
149
 11
159
 21
149
  0
SOLID
  5
D6
100
AcDbEntity
  8
dim
  6
ByBlock
 62
    0
370
   -2
100
AcDbTrace
 10
35.9524
 20
149
 30
0
 11
38.4524
 21
149.4162846577728
 31
0
 12
38.4524
 22
148.5837153422272
 32
0
 13
38.4524
 23
148.5837153422272
 33
0
  0
SOLID
  5
D7
100
AcDbEntity
  8
dim
  6
ByBlock
 62
    0
370
   -2
100
AcDbTrace
 10
159
 20
149
 30
0
 11
156.5
 21
148.5837153422272
 31
0
 12
156.5
 22
149.4162846577728
 32
0
 13
156.5
 23
149.4162846577728
 33
0
  0
MTEXT
  5
D8
100
AcDbEntity
  8
dim
  6
CONTINUOUS
 62
    0
370
   -2
100
AcDbMText
 10
97.47620000000001
 20
150.875
 30
0
 40
2.5
 41
7.222222222222378
 71
    5
 72
    1
  1
123.0
  7
STANDARD
210
0
220
0
230
1
 50
0
 73
    2
 44
1
  0
LINE
  5
D9
100
AcDbEntity
  8
dim
  6
ByBlock
 62
    0
370
   -2
100
AcDbLine
 10
35.9524
 20
129.625
 11
35.9524
 21
150.25
  0
LINE
  5
DA
100
AcDbEntity
  8
dim
  6
ByBlock
 62
    0
370
   -2
100
AcDbLine
 10
159
 20
129.625
 11
159
 21
150.25
  0
ENDBLK
  5
7A
330
78
100
AcDbEntity
  8
0
100
AcDbBlockEnd
  0
BLOCK
  5
7C
330
7B
100
AcDbEntity
  8
0
100
AcDbBlockBegin
  2
*D12
 70
    1
 10
0
 20
0
  3
*D12
  1

  0
LINE
  5
DB
100
AcDbEntity
  8
dim
  6
ByBlock
 62
    0
370
   -2
100
AcDbLine
 10
140
 20
125
 11
140
 21
140
  0
SOLID
  5
DC
100
AcDbEntity
  8
dim
  6
ByBlock
 62
    0
370
   -2
100
AcDbTrace
 10
140
 20
125
 30
0
 11
139.5837153422272
 21
127.5
 31
0
 12
140.4162846577728
 22
127.5
 32
0
 13
140.4162846577728
 23
127.5
 33
0
  0
SOLID
  5
DD
100
AcDbEntity
  8
dim
  6
ByBlock
 62
    0
370
   -2
100
AcDbTrace
 10
140
 20
140
 30
0
 11
140.4162846577728
 21
137.5
 31
0
 12
139.5837153422272
 22
137.5
 32
0
 13
139.5837153422272
 23
137.5
 33
0
  0
MTEXT
  5
DE
100
AcDbEntity
  8
dim
  6
CONTINUOUS
 62
    0
370
   -2
100
AcDbMText
 10
138.125
 20
132.5
 30
0
 40
2.5
 41
5.277777777777933
 71
    5
 72
    1
  1
15.0
  7
STANDARD
210
0
220
0
230
1
 50
90
 73
    2
 44
1
  0
LINE
  5
DF
100
AcDbEntity
  8
dim
  6
ByBlock
 62
    0
370
   -2
100
AcDbLine
 10
150.375
 20
125
 11
138.75
 21
125
  0
LINE
  5
E0
100
AcDbEntity
  8
dim
  6
ByBlock
 62
    0
370
   -2
100
AcDbLine
 10
150.375
 20
140
 11
138.75
 21
140
  0
ENDBLK
  5
7D
330
7B
100
AcDbEntity
  8
0
100
AcDbBlockEnd
  0
BLOCK
  5
7F
330
7E
100
AcDbEntity
  8
0
100
AcDbBlockBegin
  2
*D1
 70
    1
 10
0
 20
0
  3
*D1
  1

  0
LINE
  5
E1
100
AcDbEntity
  8
dim
  6
ByBlock
 62
    0
370
   -2
100
AcDbLine
 10
40
 20
20
 11
200
 21
20
  0
SOLID
  5
E2
100
AcDbEntity
  8
dim
  6
ByBlock
 62
    0
370
   -2
100
AcDbTrace
 10
40
 20
20
 30
0
 11
42.5
 21
20.41628465777284
 31
0
 12
42.5
 22
19.58371534222716
 32
0
 13
42.5
 23
19.58371534222716
 33
0
  0
SOLID
  5
E3
100
AcDbEntity
  8
dim
  6
ByBlock
 62
    0
370
   -2
100
AcDbTrace
 10
200
 20
20
 30
0
 11
197.5
 21
19.58371534222716
 31
0
 12
197.5
 22
20.41628465777284
 32
0
 13
197.5
 23
20.41628465777284
 33
0
  0
MTEXT
  5
E4
100
AcDbEntity
  8
dim
  6
CONTINUOUS
 62
    0
370
   -2
100
AcDbMText
 10
120
 20
21.875
 30
0
 40
2.5
 41
7.222222222222378
 71
    5
 72
    1
  1
160.0
  7
STANDARD
210
0
220
0
230
1
 50
0
 73
    2
 44
1
  0
LINE
  5
E5
100
AcDbEntity
  8
dim
  6
ByBlock
 62
    0
370
   -2
100
AcDbLine
 10
40
 20
39.375
 11
40
 21
18.75
  0
LINE
  5
E6
100
AcDbEntity
  8
dim
  6
ByBlock
 62
    0
370
   -2
100
AcDbLine
 10
200
 20
39.375
 11
200
 21
18.75
  0
ENDBLK
  5
80
330
7E
100
AcDbEntity
  8
0
100
AcDbBlockEnd
  0
BLOCK
  5
82
330
81
100
AcDbEntity
  8
0
100
AcDbBlockBegin
  2
*D16
 70
    1
 10
0
 20
0
  3
*D16
  1

  0
LINE
  5
E7
100
AcDbEntity
  8
dim
  6
ByBlock
 62
    0
370
   -2
100
AcDbLine
 10
160
 20
149
 11
204.047619047619
 21
149
  0
SOLID
  5
E8
100
AcDbEntity
  8
dim
  6
ByBlock
 62
    0
370
   -2
100
AcDbTrace
 10
160
 20
149
 30
0
 11
162.5
 21
149.4162846577728
 31
0
 12
162.5
 22
148.5837153422272
 32
0
 13
162.5
 23
148.5837153422272
 33
0
  0
SOLID
  5
E9
100
AcDbEntity
  8
dim
  6
ByBlock
 62
    0
370
   -2
100
AcDbTrace
 10
204.047619047619
 20
149
 30
0
 11
201.547619047619
 21
148.5837153422272
 31
0
 12
201.547619047619
 22
149.4162846577728
 32
0
 13
201.547619047619
 23
149.4162846577728
 33
0
  0
MTEXT
  5
EA
100
AcDbEntity
  8
dim
  6
CONTINUOUS
 62
    0
370
   -2
100
AcDbMText
 10
182.0238095238095
 20
150.875
 30
0
 40
2.5
 41
6.388888888888889
 71
    5
 72
    1
  1
44.0
  7
STANDARD
210
0
220
0
230
1
 50
0
 73
    2
 44
1
  0
LINE
  5
EB
100
AcDbEntity
  8
dim
  6
ByBlock
 62
    0
370
   -2
100
AcDbLine
 10
160
 20
129.625
 11
160
 21
150.25
  0
LINE
  5
EC
100
AcDbEntity
  8
dim
  6
ByBlock
 62
    0
370
   -2
100
AcDbLine
 10
204.047619047619
 20
129.625
 11
204.047619047619
 21
150.25
  0
ENDBLK
  5
83
330
81
100
AcDbEntity
  8
0
100
AcDbBlockEnd
  0
BLOCK
  5
85
330
84
100
AcDbEntity
  8
0
100
AcDbBlockBegin
  2
*D18
 70
    1
 10
0
 20
0
  3
*D18
  1

  0
LINE
  5
ED
100
AcDbEntity
  8
dim
  6
ByBlock
 62
    0
370
   -2
100
AcDbLine
 10
165
 20
109
 11
180
 21
109
  0
SOLID
  5
EE
100
AcDbEntity
  8
dim
  6
ByBlock
 62
    0
370
   -2
100
AcDbTrace
 10
170
 20
109
 30
0
 11
167.5
 21
108.5837153422272
 31
0
 12
167.5
 22
109.4162846577728
 32
0
 13
167.5
 23
109.4162846577728
 33
0
  0
SOLID
  5
EF
100
AcDbEntity
  8
dim
  6
ByBlock
 62
    0
370
   -2
100
AcDbTrace
 10
175
 20
109
 30
0
 11
177.5
 21
109.4162846577728
 31
0
 12
177.5
 22
108.5837153422272
 32
0
 13
177.5
 23
108.5837153422272
 33
0
  0
MTEXT
  5
F0
100
AcDbEntity
  8
dim
  6
CONTINUOUS
 62
    0
370
   -2
100
AcDbMText
 10
172.5
 20
110.875
 30
0
 40
2.5
 41
3.888888888889044
 71
    5
 72
    1
  1
5.0
  7
STANDARD
210
0
220
0
230
1
 50
0
 73
    2
 44
1
  0
LINE
  5
F1
100
AcDbEntity
  8
dim
  6
ByBlock
 62
    0
370
   -2
100
AcDbLine
 10
170
 20
123.375
 11
170
 21
107.75
  0
LINE
  5
F2
100
AcDbEntity
  8
dim
  6
ByBlock
 62
    0
370
   -2
100
AcDbLine
 10
175
 20
123.375
 11
175
 21
107.75
  0
ENDBLK
  5
86
330
84
100
AcDbEntity
  8
0
100
AcDbBlockEnd
  0
BLOCK
  5
88
330
87
100
AcDbEntity
  8
0
100
AcDbBlockBegin
  2
*D9
 70
    1
 10
0
 20
0
  3
*D9
  1

  0
LINE
  5
F3
100
AcDbEntity
  8
dim
  6
ByBlock
 62
    0
370
   -2
100
AcDbLine
 10
151.5412658773653
 20
105.3125
 11
158.8464063839649
 21
109.5301248379533
  0
LINE
  5
F4
100
AcDbEntity
  8
dim
  6
ByBlock
 62
    0
370
   -2
100
AcDbLine
 10
151
 20
104.375
 11
151
 21
95.93975032409335
  0
ARC
  5
F5
100
AcDbEntity
  8
dim
  6
ByBlock
 62
    0
370
   -2
100
AcDbCircle
 10
151
 20
105
 40
7.810249675906654
100
AcDbArc
 50
270
 51
30.00000000000004
  0
SOLID
  5
F6
100
AcDbEntity
  8
dim
  6
ByBlock
 62
    0
370
   -2
100
AcDbTrace
 10
157.7638746292344
 20
108.9051248379533
 30
0
 11
159.0419430263059
 21
106.7165558788606
 31
0
 12
158.263790937434
 22
106.420496777037
 32
0
 13
158.263790937434
 23
106.420496777037
 33
0
  0
SOLID
  5
F7
100
AcDbEntity
  8
dim
  6
ByBlock
 62
    0
370
   -2
100
AcDbTrace
 10
151
 20
97.18975032409335
 30
0
 11
153.4017091738091
 21
97.99912413188444
 31
0
 12
153.5343905150441
 22
97.1771951040017
 32
0
 13
153.5343905150441
 23
97.1771951040017
 33
0
  0
MTEXT
  5
F8
100
AcDbEntity
  8
dim
  6
CONTINUOUS
 62
    0
370
   -2
100
AcDbMText
 10
157.2226087518691
 20
101.4073751620467
 30
0
 40
2.5
 41
8.888888888888889
 71
    8
 72
    1
  1
120.0%%D
  7
STANDARD
210
0
220
0
230
1
 50
60.00000000000006
 73
    2
 44
1
  0
ENDBLK
  5
89
330
87
100
AcDbEntity
  8
0
100
AcDbBlockEnd
  0
BLOCK
  5
8B
330
8A
100
AcDbEntity
  8
0
100
AcDbBlockBegin
  2
tst1
 70
    0
 10
0
 20
0
  3
tst1
  1

  0
LWPOLYLINE
  5
F9
100
AcDbEntity
  8
servohood
  6
ByLayer
 62
  256
370
   -1
100
AcDbPolyline
 90
    4
 70
    1
 43
0
 10
24
 20
16
 10
24
 20
16
 10
24
 20
16
 10
24
 20
16
  0
LINE
  5
FA
100
AcDbEntity
  8
servohood
  6
CONTINUOUS
 62
    6
370
    0
100
AcDbLine
 10
20
 20
12
 11
43
 21
12
  0
DIMENSION
  5
FB
100
AcDbEntity
  8
dim
  6
ByLayer
 62
  256
370
   -1
100
AcDbDimension
 10
43
 20
7.999999999999998
 30
0
 11
31.5
 21
9.874999999999998
 31
0
 70
   32
 71
    5
 72
    0
  3
Standard
 53
0
210
0
220
0
230
1
100
AcDbAlignedDimension
 13
20
 23
12
 33
0
 14
43
 24
12
 34
0
100
AcDbRotatedDimension
  0
LINE
  5
FC
100
AcDbEntity
  8
servohood
  6
CONTINUOUS
 62
    6
370
    0
100
AcDbLine
 10
20
 20
24
 11
20
 21
12
  0
DIMENSION
  5
FD
100
AcDbEntity
  8
dim
  6
ByLayer
 62
  256
370
   -1
100
AcDbDimension
 10
18.55839650109659
 20
24
 30
0
 11
16.68339650109659
 21
18
 31
0
 70
   32
 71
    5
  3
Standard
 53
0
210
0
220
0
230
1
100
AcDbAlignedDimension
 13
20
 23
12
 33
0
 14
20
 24
24
 34
0
 50
90
100
AcDbRotatedDimension
  0
LINE
  5
FE
100
AcDbEntity
  8
servohood
  6
CONTINUOUS
 62
    6
370
    0
100
AcDbLine
 10
20
 20
24
 11
43
 21
24
  0
LINE
  5
FF
100
AcDbEntity
  8
servohood
  6
CONTINUOUS
 62
    6
370
    0
100
AcDbLine
 10
43
 20
24
 11
43
 21
12
  0
CIRCLE
  5
100
100
AcDbEntity
  8
servohood
  6
ByLayer
 62
  256
370
   -1
100
AcDbCircle
 10
37
 20
18
 40
2
  0
CIRCLE
  5
101
100
AcDbEntity
  8
servohood
  6
ByLayer
 62
  256
370
   -1
100
AcDbCircle
 10
37
 20
18
 40
1
  0
DIMENSION
  5
102
100
AcDbEntity
  8
dim
  6
ByLayer
 62
  256
370
   -1
100
AcDbDimension
 10
5
 20
29
 30
0
 11
2.5
 21
30.875
 31
0
 70
   32
 71
    5
 72
    0
  3
Standard
 53
0
210
0
220
0
230
1
100
AcDbAlignedDimension
 13
0
 23
31
 33
0
 14
5
 24
31
 34
0
100
AcDbRotatedDimension
  0
DIMENSION
  5
103
100
AcDbEntity
  8
dim
  6
ByLayer
 62
  256
370
   -1
100
AcDbDimension
 10
12
 20
5
 30
0
 11
10.125
 21
2.5
 31
0
 70
   32
 71
    5
 72
    0
  3
Standard
 53
0
210
0
220
0
230
1
100
AcDbAlignedDimension
 13
9
 23
0
 33
0
 14
9
 24
5
 34
0
 50
90
100
AcDbRotatedDimension
  0
LWPOLYLINE
  5
104
100
AcDbEntity
  8
0
  6
ByLayer
 62
  256
370
   -1
100
AcDbPolyline
 90
    4
 70
    1
 43
0
 10
5
 20
5
 10
270
 20
5
 10
270
 20
180
 10
5
 20
180
  0
DIMENSION
  5
105
100
AcDbEntity
  8
dim
  6
ByLayer
 62
  256
370
   -1
100
AcDbDimension
 10
270
 20
160
 30
0
 11
137.5
 21
161.875
 31
0
 70
   32
 71
    5
 72
    0
  3
Standard
 53
0
210
0
220
0
230
1
100
AcDbAlignedDimension
 13
5
 23
180
 33
0
 14
270
 24
180
 34
0
100
AcDbRotatedDimension
  0
DIMENSION
  5
106
100
AcDbEntity
  8
dim
  6
ByLayer
 62
  256
370
   -1
100
AcDbDimension
 10
250
 20
5.000000000000003
 30
0
 11
248.125
 21
92.5
 31
0
 70
   32
 71
    5
 72
    0
  3
Standard
 53
0
210
0
220
0
230
1
100
AcDbAlignedDimension
 13
270
 23
180
 33
0
 14
270
 24
5
 34
0
 50
90
100
AcDbRotatedDimension
  0
LINE
  5
107
100
AcDbEntity
  8
servohoodmove
  6
ByLayer
 62
  256
370
   -1
100
AcDbLine
 10
37
 20
18
 11
51.7224
 21
9.5
  0
LINE
  5
108
100
AcDbEntity
  8
servohoodmove
  6
ByLayer
 62
  256
370
   -1
100
AcDbLine
 10
37
 20
18
 11
42.81434796972015
 21
33.97474317311584
  0
DIMENSION
  5
109
100
AcDbEntity
  8
dim
  6
ByLayer
 62
  256
370
   -1
100
AcDbDimension
 10
42.81434796972015
 20
33.97474317311584
 30
0
 11
0
 21
0
 31
0
 70
   34
 71
    5
  3
Standard
 53
0
210
0
220
0
230
1
100
AcDb2LineAngularDimension
 13
37
 23
18
 33
0
 14
51.7224
 24
9.5
 34
0
 15
37
 25
18
 35
0
 16
42
 26
18
 36
0
  0
LWPOLYLINE
  5
10A
100
AcDbEntity
  8
0
  6
ByLayer
 62
  256
370
   -1
100
AcDbPolyline
 90
    4
 70
    1
 43
0
 10
0
 20
0
 10
275
 20
0
 10
275
 20
185
 10
0
 20
185
  0
LWPOLYLINE
  5
10B
100
AcDbEntity
  8
servoarm
  6
ByLayer
 62
  256
370
   -1
100
AcDbPolyline
 90
    4
 70
    1
 43
0
 10
80
 20
50
 10
120
 20
50
 10
120
 20
70
 10
80
 20
70
  0
CIRCLE
  5
10C
100
AcDbEntity
  8
servoarm
  6
ByLayer
 62
  256
370
   -1
100
AcDbCircle
 10
111
 20
60
 40
3
  0
CIRCLE
  5
10D
100
AcDbEntity
  8
servoarm
  6
ByLayer
 62
  256
370
   -1
100
AcDbCircle
 10
111
 20
60
 40
1
  0
DIMENSION
  5
10E
100
AcDbEntity
  8
dim
  6
ByLayer
 62
  256
370
   -1
100
AcDbDimension
 10
120
 20
42
 30
0
 11
100
 21
43.875
 31
0
 70
   32
 71
    5
  3
Standard
 53
0
210
0
220
0
230
1
100
AcDbAlignedDimension
 13
80
 23
50
 33
0
 14
120
 24
50
 34
0
100
AcDbRotatedDimension
  0
LINE
  5
10F
100
AcDbEntity
  8
dim
  6
ByLayer
 62
  256
370
   -1
100
AcDbLine
 10
120
 20
74
 11
150
 21
74
  0
LINE
  5
110
100
AcDbEntity
  8
dim
  6
ByLayer
 62
  256
370
   -1
100
AcDbLine
 10
150
 20
74
 11
150
 21
5
  0
LINE
  5
111
100
AcDbEntity
  8
servoarmmove
  6
ByLayer
 62
  256
370
   -1
100
AcDbLine
 10
111
 20
60
 11
80.68911086754466
 21
42.5
  0
DIMENSION
  5
112
100
AcDbEntity
  8
dim
  6
ByLayer
 62
  256
370
   -1
100
AcDbDimension
 10
129
 20
50
 30
0
 11
127.125
 21
60
 31
0
 70
   32
 71
    5
  3
Standard
 53
0
210
0
220
0
230
1
100
AcDbAlignedDimension
 13
120
 23
70
 33
0
 14
120
 24
50
 34
0
 50
90
100
AcDbRotatedDimension
  0
LINE
  5
113
100
AcDbEntity
  8
servoarmmove
  6
ByLayer
 62
  256
370
   -1
100
AcDbLine
 10
111
 20
60
 11
111
 21
94.99999999999999
  0
DIMENSION
  5
114
100
AcDbEntity
  8
dim
  6
ByLayer
 62
  256
370
   -1
100
AcDbDimension
 10
111
 20
94.99999999999999
 30
0
 11
0
 21
0
 31
0
 70
   34
 71
    5
  3
Standard
 53
0
210
0
220
0
230
1
100
AcDb2LineAngularDimension
 13
111
 23
60
 33
0
 14
80.68911086754466
 24
42.5
 34
0
 15
111
 25
60
 35
0
 16
117
 26
55
 36
0
  0
DIMENSION
  5
115
100
AcDbEntity
  8
dim
  6
ByLayer
 62
  256
370
   -1
100
AcDbDimension
 10
108.3480762113533
 20
64.59326673973661
 30
0
 11
92.25513164512564
 21
57.46706437183243
 31
0
 70
   33
 71
    5
  3
Standard
 53
0
210
0
220
0
230
1
100
AcDbAlignedDimension
 13
80.68911086754466
 23
42.5
 33
0
 14
111
 24
60
 34
0
  0
LINE
  5
116
100
AcDbEntity
  8
servoarmmove
  6
ByLayer
 62
  256
370
   -1
100
AcDbLine
 10
80.68911086754466
 20
42.5
 11
68.31618804626902
 21
64.22350756343819
  0
LINE
  5
117
100
AcDbEntity
  8
servoarmmove
  6
ByLayer
 62
  256
370
   -1
100
AcDbLine
 10
111
 20
94.99999999999999
 11
135.9995708198787
 21
94.85351170056981
  0
DIMENSION
  5
118
100
AcDbEntity
  8
dim
  6
ByLayer
 62
  256
370
   -1
100
AcDbDimension
 10
73.69335334760181
 20
38.51546998716299
 30
0
 11
69.13615500422186
 21
50.30519298047776
 31
0
 70
   33
 71
    5
  3
Standard
 53
0
210
0
220
0
230
1
100
AcDbAlignedDimension
 13
68.31618804626902
 23
64.22350756343819
 33
0
 14
80.68911086754466
 24
42.5
 34
0
  0
LINE
  5
119
100
AcDbEntity
  8
dim
  6
ByLayer
 62
  256
370
   -1
100
AcDbLine
 10
120
 20
74
 11
120
 21
78
  0
LINE
  5
11A
100
AcDbEntity
  8
dim
  6
ByLayer
 62
  256
370
   -1
100
AcDbLine
 10
120
 20
78
 11
154
 21
78
  0
LINE
  5
11B
100
AcDbEntity
  8
dim
  6
ByLayer
 62
  256
370
   -1
100
AcDbLine
 10
154
 20
78
 11
154
 21
5
  0
DIMENSION
  5
11C
100
AcDbEntity
  8
dim
  6
ByLayer
 62
  256
370
   -1
100
AcDbDimension
 10
154
 20
37
 30
0
 11
152
 21
38.875
 31
0
 70
   32
 71
    5
  3
Standard
 53
0
210
0
220
0
230
1
100
AcDbAlignedDimension
 13
150
 23
34
 33
0
 14
154
 24
34
 34
0
100
AcDbRotatedDimension
  0
DIMENSION
  5
11D
100
AcDbEntity
  8
dim
  6
ByLayer
 62
  256
370
   -1
100
AcDbDimension
 10
107
 20
94.99999999999999
 30
0
 11
105.125
 21
86.5
 31
0
 70
   32
 71
    5
  3
Standard
 53
0
210
0
220
0
230
1
100
AcDbAlignedDimension
 13
111
 23
78
 33
0
 14
111
 24
94.99999999999999
 34
0
 50
90
100
AcDbRotatedDimension
  0
ENDBLK
  5
8C
330
8A
100
AcDbEntity
  8
0
100
AcDbBlockEnd
  0
ENDSEC
  0
SECTION
  2
ENTITIES
  0
LINE
  5
11E
100
AcDbEntity
  8
box
  6
ByLayer
 62
  256
370
   -1
100
AcDbLine
 10
35
 20
145
 11
205
 21
145
  0
DIMENSION
  5
11F
100
AcDbEntity
  8
dim
  6
ByLayer
 62
  256
370
   -1
100
AcDbDimension
  2
*D1
 10
200
 20
20
 30
0
 11
120
 21
21.875
 31
0
 70
   32
 71
    5
  3
Standard
 53
0
210
0
220
0
230
1
100
AcDbAlignedDimension
 13
40
 23
40
 33
0
 14
200
 24
40
 34
0
100
AcDbRotatedDimension
  0
DIMENSION
  5
120
100
AcDbEntity
  8
dim
  6
ByLayer
 62
  256
370
   -1
100
AcDbDimension
  2
*D2
 10
230
 20
125
 30
0
 11
228.125
 21
82.5
 31
0
 70
   32
 71
    5
  3
Standard
 53
0
210
0
220
0
230
1
100
AcDbAlignedDimension
 13
200
 23
40
 33
0
 14
204.0476190476191
 24
125
 34
0
 50
90
100
AcDbRotatedDimension
  0
DIMENSION
  5
121
100
AcDbEntity
  8
dim
  6
ByLayer
 62
  256
370
   -1
100
AcDbDimension
  2
*D3
 10
250
 20
145
 30
0
 11
248.125
 21
92.5
 31
0
 70
   32
 71
    5
  3
Standard
 53
0
210
0
220
0
230
1
100
AcDbAlignedDimension
 13
200
 23
40
 33
0
 14
205
 24
145
 34
0
 50
90
100
AcDbRotatedDimension
  0
LWPOLYLINE
  5
122
100
AcDbEntity
  8
servohood
  6
ByLayer
 62
  256
370
   -1
100
AcDbPolyline
 90
    4
 70
    1
 43
0
 10
54
 20
56
 10
54
 20
56
 10
54
 20
56
 10
54
 20
56
  0
LINE
  5
123
100
AcDbEntity
  8
servohood
  6
ByLayer
 62
  256
370
   -1
100
AcDbLine
 10
50
 20
52
 11
73
 21
52
  0
DIMENSION
  5
124
100
AcDbEntity
  8
dim
  6
ByLayer
 62
  256
370
   -1
100
AcDbDimension
  2
*D4
 10
73
 20
48
 30
0
 11
61.5
 21
49.875
 31
0
 70
   32
 71
    5
 72
    0
  3
Standard
 53
0
210
0
220
0
230
1
100
AcDbAlignedDimension
 13
50
 23
52
 33
0
 14
73
 24
52
 34
0
100
AcDbRotatedDimension
  0
LINE
  5
125
100
AcDbEntity
  8
servohood
  6
ByLayer
 62
  256
370
   -1
100
AcDbLine
 10
50
 20
64
 11
50
 21
52
  0
DIMENSION
  5
126
100
AcDbEntity
  8
dim
  6
ByLayer
 62
  256
370
   -1
100
AcDbDimension
  2
*D5
 10
48.55839650109659
 20
64
 30
0
 11
46.68339650109659
 21
58
 31
0
 70
   32
 71
    5
  3
Standard
 53
0
210
0
220
0
230
1
100
AcDbAlignedDimension
 13
50
 23
52
 33
0
 14
50
 24
64
 34
0
 50
90
100
AcDbRotatedDimension
  0
LINE
  5
127
100
AcDbEntity
  8
servohood
  6
ByLayer
 62
  256
370
   -1
100
AcDbLine
 10
50
 20
64
 11
73
 21
64
  0
LINE
  5
128
100
AcDbEntity
  8
servohood
  6
ByLayer
 62
  256
370
   -1
100
AcDbLine
 10
73
 20
64
 11
73
 21
52
  0
CIRCLE
  5
129
100
AcDbEntity
  8
servohood
  6
ByLayer
 62
  256
370
   -1
100
AcDbCircle
 10
67
 20
58
 40
2
  0
CIRCLE
  5
12A
100
AcDbEntity
  8
servohood
  6
ByLayer
 62
  256
370
   -1
100
AcDbCircle
 10
67
 20
58
 40
1
  0
LINE
  5
12B
100
AcDbEntity
  8
servohoodmove
  6
ByLayer
 62
  256
370
   -1
100
AcDbLine
 10
67
 20
58
 11
81.72239999999999
 21
49.5
  0
LINE
  5
12C
100
AcDbEntity
  8
servohoodmove
  6
ByLayer
 62
  256
370
   -1
100
AcDbLine
 10
67
 20
58
 11
72.81434796972016
 21
73.97474317311584
  0
DIMENSION
  5
12D
100
AcDbEntity
  8
dim
  6
ByLayer
 62
  256
370
   -1
100
AcDbDimension
  2
*D6
 10
72.81434796972016
 20
73.97474317311584
 30
0
 11
30
 21
40
 31
0
 70
   34
 71
    5
  3
Standard
 53
0
210
0
220
0
230
1
100
AcDb2LineAngularDimension
 13
67
 23
58
 33
0
 14
81.72239999999999
 24
49.5
 34
0
 15
67
 25
58
 35
0
 16
72
 26
58
 36
0
  0
DIMENSION
  5
12E
100
AcDbEntity
  8
dim
  6
ByLayer
 62
  256
370
   -1
100
AcDbDimension
  2
*D7
 10
221
 20
125
 30
0
 11
219.125
 21
135
 31
0
 70
   32
 71
    5
 72
    0
  3
Standard
 53
0
210
0
220
0
230
1
100
AcDbAlignedDimension
 13
205
 23
145
 33
0
 14
204.047619047619
 24
125
 34
0
 50
90
100
AcDbRotatedDimension
  0
LINE
  5
12F
100
AcDbEntity
  8
box
  6
ByLayer
 62
  256
370
   -1
100
AcDbLine
 10
39.95464595949598
 20
40.95243485058455
 11
35
 21
145
  0
ARC
  5
130
100
AcDbEntity
  8
box
  6
ByLayer
 62
  256
370
   -1
100
AcDbCircle
 10
40.95351409722041
 20
41
 40
1
100
AcDbArc
 50
182.7263109939062
 51
270
  0
LINE
  5
131
100
AcDbEntity
  8
box
  6
ByLayer
 62
  256
370
   -1
100
AcDbLine
 10
200.045354040504
 20
40.95243485058455
 11
205
 21
145
  0
ARC
  5
132
100
AcDbEntity
  8
box
  6
ByLayer
 62
  256
370
   -1
100
AcDbCircle
 10
199.0464859027796
 20
41
 40
1
100
AcDbArc
 50
270.0000000000016
 51
357.2736890060938
  0
LINE
  5
133
100
AcDbEntity
  8
box
  6
CONTINUOUS
 62
  256
370
    0
100
AcDbLine
 10
40.9535
 20
40
 11
199.046
 21
40
  0
LWPOLYLINE
  5
134
100
AcDbEntity
  8
servoarm
  6
ByLayer
 62
  256
370
   -1
100
AcDbPolyline
 90
    4
 70
    1
 43
0
 10
120
 20
95
 10
160
 20
95
 10
160
 20
115
 10
120
 20
115
  0
CIRCLE
  5
135
100
AcDbEntity
  8
servoarm
  6
ByLayer
 62
  256
370
   -1
100
AcDbCircle
 10
151
 20
105
 40
3
  0
CIRCLE
  5
136
100
AcDbEntity
  8
servoarm
  6
ByLayer
 62
  256
370
   -1
100
AcDbCircle
 10
151
 20
105
 40
1
  0
DIMENSION
  5
137
100
AcDbEntity
  8
dim
  6
ByLayer
 62
  256
370
   -1
100
AcDbDimension
  2
*D8
 10
160
 20
87
 30
0
 11
140
 21
88.875
 31
0
 70
   32
 71
    5
  3
Standard
 53
0
210
0
220
0
230
1
100
AcDbAlignedDimension
 13
120
 23
95
 33
0
 14
160
 24
95
 34
0
100
AcDbRotatedDimension
  0
LINE
  5
138
100
AcDbEntity
  8
servoarmmove
  6
ByLayer
 62
  256
370
   -1
100
AcDbLine
 10
151
 20
105
 11
120.6891108675447
 21
87.5
  0
LINE
  5
139
100
AcDbEntity
  8
servoarmmove
  6
ByLayer
 62
  256
370
   -1
100
AcDbLine
 10
151
 20
105
 11
151
 21
140
  0
DIMENSION
  5
13A
100
AcDbEntity
  8
dim
  6
ByLayer
 62
  256
370
   -1
100
AcDbDimension
  2
*D9
 10
151
 20
140
 30
0
 11
40
 21
45
 31
0
 70
   34
 71
    5
  3
Standard
 53
0
210
0
220
0
230
1
100
AcDb2LineAngularDimension
 13
151
 23
105
 33
0
 14
120.6891108675447
 24
87.5
 34
0
 15
151
 25
105
 35
0
 16
157
 26
100
 36
0
  0
DIMENSION
  5
13B
100
AcDbEntity
  8
dim
  6
ByLayer
 62
  256
370
   -1
100
AcDbDimension
  2
*D10
 10
148.3480762113533
 20
109.5932667397366
 30
0
 11
132.2551316451256
 21
102.4670643718324
 31
0
 70
   33
 71
    5
  3
Standard
 53
0
210
0
220
0
230
1
100
AcDbAlignedDimension
 13
120.6891108675447
 23
87.5
 33
0
 14
151
 24
105
 34
0
  0
LINE
  5
13C
100
AcDbEntity
  8
servoarmmove
  6
ByLayer
 62
  256
370
   -1
100
AcDbLine
 10
120.6891108675447
 20
87.5
 11
108.316188046269
 21
109.2235075634382
  0
LINE
  5
13D
100
AcDbEntity
  8
servoarmmove
  6
ByLayer
 62
  256
370
   -1
100
AcDbLine
 10
151
 20
140
 11
175.9995708198787
 21
139.8535117005698
  0
DIMENSION
  5
13E
100
AcDbEntity
  8
dim
  6
ByLayer
 62
  256
370
   -1
100
AcDbDimension
  2
*D11
 10
113.6933533476018
 20
83.51546998716294
 30
0
 11
109.1361550042219
 21
95.30519298047776
 31
0
 70
   33
 71
    5
  3
Standard
 53
0
210
0
220
0
230
1
100
AcDbAlignedDimension
 13
108.316188046269
 23
109.2235075634382
 33
0
 14
120.6891108675447
 24
87.5
 34
0
  0
DIMENSION
  5
13F
100
AcDbEntity
  8
dim
  6
ByLayer
 62
  256
370
   -1
100
AcDbDimension
  2
*D12
 10
140
 20
140
 30
0
 11
138.125
 21
132.5
 31
0
 70
   32
 71
    5
 72
    0
  3
Standard
 53
0
210
0
220
0
230
1
100
AcDbAlignedDimension
 13
151
 23
125
 33
0
 14
151
 24
140
 34
0
 50
90
100
AcDbRotatedDimension
  0
DIMENSION
  5
140
100
AcDbEntity
  8
dim
  6
ByLayer
 62
  256
370
   -1
100
AcDbDimension
  2
*D13
 10
163
 20
95
 30
0
 11
161.125
 21
105
 31
0
 70
   32
 71
    5
 72
    0
  3
Standard
 53
0
210
0
220
0
230
1
100
AcDbAlignedDimension
 13
160
 23
115
 33
0
 14
160
 24
95
 34
0
 50
90
100
AcDbRotatedDimension
  0
LWPOLYLINE
  5
141
100
AcDbEntity
  8
switch
  6
ByLayer
 62
  256
370
   -1
100
AcDbPolyline
 90
    4
 70
    1
 43
0
 10
175
 20
124
 10
170
 20
124
 10
170
 20
130
 10
175
 20
130
  0
LWPOLYLINE
  5
142
100
AcDbEntity
  8
switch
  6
ByLayer
 62
  256
370
   -1
100
AcDbPolyline
 90
    4
 70
    1
 43
0
 10
165
 20
124
 10
179
 20
124
 10
179
 20
114
 10
165
 20
114
  0
LWPOLYLINE
  5
143
100
AcDbEntity
  8
switch
  6
ByLayer
 62
  256
370
   -1
100
AcDbPolyline
 90
    4
 70
    1
 43
0
 10
172
 20
130
 10
173
 20
130
 10
173
 20
150
 10
172
 20
150
  0
LINE
  5
144
100
AcDbEntity
  8
box
  6
ByLayer
 62
  256
370
   -1
100
AcDbLine
 10
160
 20
125
 11
204.047619047619
 21
125
  0
LINE
  5
145
100
AcDbEntity
  8
box
  6
ByLayer
 62
  256
370
   -1
100
AcDbLine
 10
35.9524
 20
125
 11
159
 21
125
  0
LINE
  5
146
100
AcDbEntity
  8
box
  6
ByLayer
 62
  256
370
   -1
100
AcDbLine
 10
35.9524
 20
129
 11
159
 21
129
  0
LINE
  5
147
100
AcDbEntity
  8
box
  6
ByLayer
 62
  256
370
   -1
100
AcDbLine
 10
159
 20
125
 11
159
 21
129
  0
LINE
  5
148
100
AcDbEntity
  8
box
  6
ByLayer
 62
  256
370
   -1
100
AcDbLine
 10
160
 20
129
 11
204.047619047619
 21
129
  0
LINE
  5
149
100
AcDbEntity
  8
box
  6
ByLayer
 62
  256
370
   -1
100
AcDbLine
 10
160
 20
125
 11
160
 21
129
  0
DIMENSION
  5
14A
100
AcDbEntity
  8
dim
  6
ByLayer
 62
  256
370
   -1
100
AcDbDimension
  2
*D14
 10
205
 20
160
 30
0
 11
120
 21
161.875
 31
0
 70
   32
 71
    5
 72
    0
  3
Standard
 53
0
210
0
220
0
230
1
100
AcDbAlignedDimension
 13
35
 23
145
 33
0
 14
205
 24
145
 34
0
100
AcDbRotatedDimension
  0
DIMENSION
  5
14B
100
AcDbEntity
  8
dim
  6
ByLayer
 62
  256
370
   -1
100
AcDbDimension
  2
*D15
 10
159
 20
149
 30
0
 11
97.47620000000001
 21
150.875
 31
0
 70
   32
 71
    5
 72
    0
  3
Standard
 53
0
210
0
220
0
230
1
100
AcDbAlignedDimension
 13
35.9524
 23
129
 33
0
 14
159
 24
129
 34
0
100
AcDbRotatedDimension
  0
DIMENSION
  5
14C
100
AcDbEntity
  8
dim
  6
ByLayer
 62
  256
370
   -1
100
AcDbDimension
  2
*D16
 10
204.047619047619
 20
149
 30
0
 11
182.0238095238095
 21
150.875
 31
0
 70
   32
 71
    5
 72
    0
  3
Standard
 53
0
210
0
220
0
230
1
100
AcDbAlignedDimension
 13
160
 23
129
 33
0
 14
204.047619047619
 24
129
 34
0
100
AcDbRotatedDimension
  0
DIMENSION
  5
14D
100
AcDbEntity
  8
dim
  6
ByLayer
 62
  256
370
   -1
100
AcDbDimension
  2
*D17
 10
204.047619047619
 20
134
 30
0
 11
188.2738095238095
 21
135.875
 31
0
 70
   32
 71
    5
  3
Standard
 53
0
210
0
220
0
230
1
100
AcDbAlignedDimension
 13
172.5
 23
125
 33
0
 14
204.047619047619
 24
125
 34
0
100
AcDbRotatedDimension
  0
DIMENSION
  5
14E
100
AcDbEntity
  8
dim
  6
ByLayer
 62
  256
370
   -1
100
AcDbDimension
  2
*D18
 10
175
 20
109
 30
0
 11
172.5
 21
110.875
 31
0
 70
   32
 71
    5
  3
Standard
 53
0
210
0
220
0
230
1
100
AcDbAlignedDimension
 13
170
 23
124
 33
0
 14
175
 24
124
 34
0
100
AcDbRotatedDimension
  0
ENDSEC
  0
SECTION
  2
OBJECTS
  0
DICTIONARY
  5
C
330
0
100
AcDbDictionary
281
    1
  3
ACAD_GROUP
350
D
  0
DICTIONARY
  5
D
330
C
100
AcDbDictionary
281
    1
  0
ENDSEC
  0
EOF
